#!OML:ASF H:\Terrain\Patient Classification 1\Animal1\Tuesday\Animal1.ASF
:FULLY-SPECIFIED
:DEGREES
2063
root 1.82593 16.7037 -11.7941 -163.007 25.3513 173.965
lowerback 3.96439 -1.66471 -6.40511
upperback -1.55909 -2.52051 -3.05364
thorax -3.7011 -1.0653 0.596248
lowerneck -8.7243 -2.96605 -9.63303
upperneck -10.2648 -1.27719 16.6833
head -1.27714 -0.0544774 6.71347
rclavicle 2.0276e-014 3.65764e-014
rhumerus -13.8333 0.258815 -79.3095
rradius 116.528
rwrist 12.7914
rhand 5.79533 12.2878
rfingers 7.12502
rthumb 31.1283 -15.0892
lclavicle 2.0276e-014 3.65764e-014
lhumerus -24.9804 -16.4801 84.7824
lradius 98.9285
lwrist -52.0537
lhand 15.712 48.2842
lfingers 7.12502
lthumb 40.5214 73.3508
rfemur -46.8263 -2.09639 29.6369
rtibia 31.8565
rfoot 15.193 -9.06981
rtoes -28.9793
lfemur -17.0425 1.44839 -25.3013
ltibia 29.5399
lfoot 2.72801 18.1389
ltoes -8.43716
2064
root 1.88142 16.7262 -11.9305 -163.321 25.9677 173.411
lowerback 3.67627 -1.69253 -6.72497
upperback -1.64841 -2.53953 -3.28133
thorax -3.62731 -1.06099 0.530222
lowerneck -8.69106 -3.04575 -9.98369
upperneck -9.97179 -1.40824 17.0254
head -1.16698 -0.118337 6.87867
rclavicle 2.10712e-014 2.54444e-014
rhumerus -14.3407 0.538411 -79.3265
rradius 116.525
rwrist 12.4519
rhand 4.77333 11.6761
rfingers 7.12502
rthumb 30.1538 -15.8833
lclavicle 2.10712e-014 2.54444e-014
lhumerus -25.2155 -16.6501 84.9116
lradius 98.9717
lwrist -51.8566
lhand 15.8301 48.5963
lfingers 7.12502
lthumb 40.6325 73.6284
rfemur -46.1975 -1.40235 28.8023
rtibia 31.6183
rfoot 13.8121 -13.0435
rtoes -16.7201
lfemur -17.0265 2.47084 -25.8766
ltibia 30.3585
lfoot 4.69142 17.0068
ltoes -10.1466
2065
root 1.93837 16.7365 -12.0667 -163.603 26.5058 172.977
lowerback 3.36787 -1.7381 -6.88651
upperback -1.7478 -2.57322 -3.47523
thorax -3.55651 -1.06864 0.41184
lowerneck -8.77782 -3.04685 -10.0068
upperneck -9.47723 -1.50702 17.0095
head -0.997709 -0.171993 6.86796
rclavicle 9.93923e-016 1.43125e-014
rhumerus -14.7314 0.711739 -79.2889
rradius 116.551
rwrist 12.2049
rhand 4.10331 11.3202
rfingers 7.12502
rthumb 29.5143 -16.3539
lclavicle 9.93923e-016 1.43125e-014
lhumerus -25.4088 -16.7707 85.036
lradius 98.967
lwrist -51.5358
lhand 15.887 48.5426
lfingers 7.12502
lthumb 40.6859 73.558
rfemur -45.7401 -1.08146 28.4047
rtibia 31.8517
rfoot 15.7395 -10.5996
rtoes -18.1684
lfemur -17.1466 3.52617 -26.2587
ltibia 31.3911
lfoot 6.94346 15.6059
ltoes -8.83399
2066
root 1.99512 16.7278 -12.1957 -164.142 26.9415 172.335
lowerback 3.23299 -1.83563 -7.22652
upperback -1.76775 -2.69031 -3.71482
thorax -3.49107 -1.11221 0.353059
lowerneck -8.65122 -3.01723 -9.84771
upperneck -9.19762 -1.5621 16.9047
head -0.935845 -0.219075 6.80117
rclavicle 1.11319e-014 3.18055e-015
rhumerus -15.1204 0.783501 -79.3012
rradius 116.602
rwrist 12.1045
rhand 3.8963 11.3897
rfingers 7.12502
rthumb 29.3167 -16.3192
lclavicle 1.11319e-014 3.18055e-015
lhumerus -25.4499 -16.8108 85.0353
lradius 98.8937
lwrist -51.2691
lhand 16.2154 48.2306
lfingers 7.12502
lthumb 40.9944 73.1488
rfemur -45.1742 -1.07655 28.0192
rtibia 32.2606
rfoot 17.4604 -4.55821
rtoes -27.1108
lfemur -17.3903 4.54877 -26.7125
ltibia 32.8096
lfoot 8.4963 14.5959
ltoes -3.47514
2067
root 2.05387 16.7213 -12.3246 -164.618 27.2988 171.832
lowerback 3.12667 -1.91902 -7.40862
upperback -1.73466 -2.78311 -3.92481
thorax -3.39301 -1.15137 0.236412
lowerneck -8.68472 -3.09221 -9.69912
upperneck -8.94334 -1.73429 16.8216
head -0.838417 -0.312604 6.7397
rclavicle 4.31363e-014 -1.35174e-014
rhumerus -15.3562 0.771358 -79.2584
rradius 116.727
rwrist 11.9505
rhand 4.0591 11.2999
rfingers 7.12502
rthumb 29.4721 -16.3817
lclavicle 4.31363e-014 -1.35174e-014
lhumerus -25.4508 -16.9208 85.0259
lradius 98.9316
lwrist -51.0385
lhand 16.7663 48.2606
lfingers 7.12502
lthumb 41.5116 73.0122
rfemur -44.4355 -0.789526 27.4848
rtibia 32.5878
rfoot 16.951 -4.03331
rtoes -26.106
lfemur -17.9588 5.37835 -26.9524
ltibia 34.7853
lfoot 9.77034 13.6747
ltoes 1.93689
2068
root 2.11372 16.7195 -12.4606 -164.849 27.6926 171.822
lowerback 3.02771 -1.9162 -7.16443
upperback -1.75405 -2.76299 -3.95857
thorax -3.37076 -1.14908 0.0631389
lowerneck -8.87871 -3.1819 -9.72929
upperneck -8.54566 -1.92808 16.7163
head -0.669456 -0.405322 6.69941
rclavicle -1.78906e-014 6.12257e-014
rhumerus -15.4932 0.644028 -79.0844
rradius 116.874
rwrist 11.6767
rhand 4.59257 11.207
rfingers 7.12502
rthumb 29.9813 -16.3837
lclavicle -1.78906e-014 6.12257e-014
lhumerus -25.5721 -17.0158 85.2026
lradius 98.9674
lwrist -50.942
lhand 16.9096 48.1171
lfingers 7.12502
lthumb 41.646 72.8246
rfemur -43.5833 0.00783029 27.0665
rtibia 32.8013
rfoot 15.4539 -6.41748
rtoes -19.8675
lfemur -18.8167 6.04781 -26.6731
ltibia 37.2191
lfoot 12.2999 11.6183
ltoes -0.658795
2069
root 2.16869 16.7052 -12.5798 -164.734 28.0082 172.294
lowerback 3.05914 -1.89677 -6.58866
upperback -1.91722 -2.74333 -3.79662
thorax -3.57727 -1.15274 -0.0839267
lowerneck -8.8636 -3.18347 -9.90122
upperneck -8.28552 -1.98207 16.6766
head -0.589237 -0.436657 6.71198
rclavicle 6.85807e-014 -7.15625e-015
rhumerus -15.9001 0.5043 -78.9389
rradius 117.038
rwrist 11.1429
rhand 4.3978 11.5656
rfingers 7.12502
rthumb 29.7954 -16.0585
lclavicle 6.85807e-014 -7.15625e-015
lhumerus -25.7702 -16.9997 85.4789
lradius 98.9318
lwrist -50.9852
lhand 16.9326 47.5452
lfingers 7.12502
lthumb 41.6676 72.2457
rfemur -42.9416 0.891544 27.1817
rtibia 33.0011
rfoot 14.5127 -6.69774
rtoes -18.6282
lfemur -20.1169 6.85072 -25.8432
ltibia 39.9396
lfoot 14.1092 12.0849
ltoes 11.5235
